<svg width="19" height="17" viewBox="0 0 19 17" fill="none" xmlns="http://www.w3.org/2000/svg">
<g id="Cabin">
<path id="Vector 3" d="M3.91998 7.18668H15.8666" stroke="#9B9EAA" stroke-width="0.426667"/>
<path id="Vector 5" d="M5.62665 5.48001H14.16" stroke="#9B9EAA" stroke-width="0.853333"/>
<path id="Vector 6" d="M7.33331 3.77335H12.4533" stroke="#9B9EAA" stroke-width="0.853333"/>
<path id="Vector 4" d="M1.35999 9.74665L9.89332 1.21332L18.4267 9.74665" stroke="#9B9EAA" stroke-width="0.853333" stroke-linecap="round"/>
<path id="Subtract" fill-rule="evenodd" clip-rule="evenodd" d="M3.49335 8.04001C3.49335 7.33309 4.06642 6.76001 4.77335 6.76001H15.0133C15.7203 6.76001 16.2933 7.33308 16.2933 8.04001C16.2933 8.36784 16.1701 8.66689 15.9674 8.89334C16.1701 9.1198 16.2933 9.41884 16.2933 9.74668C16.2933 10.0745 16.1701 10.3736 15.9674 10.6C16.1701 10.8265 16.2933 11.1255 16.2933 11.4533C16.2933 11.7812 16.1701 12.0802 15.9674 12.3067C16.1701 12.5331 16.2933 12.8322 16.2933 13.16C16.2933 13.4878 16.1701 13.7869 15.9674 14.0133C16.1701 14.2398 16.2933 14.5388 16.2933 14.8667C16.2933 15.5736 15.7203 16.1467 15.0133 16.1467H12.88V15.2933H15.0133C15.249 15.2933 15.44 15.1023 15.44 14.8667C15.44 14.631 15.249 14.44 15.0133 14.44H12.88V13.5867H15.0133C15.249 13.5867 15.44 13.3957 15.44 13.16C15.44 12.9244 15.249 12.7333 15.0133 12.7333H12.88V11.88H15.0133C15.249 11.88 15.44 11.689 15.44 11.4533C15.44 11.2177 15.249 11.0267 15.0133 11.0267H12.88V10.1733H15.0133C15.249 10.1733 15.44 9.98232 15.44 9.74668C15.44 9.51104 15.249 9.32001 15.0133 9.32001H4.77335C4.53771 9.32001 4.34668 9.51103 4.34668 9.74668C4.34668 9.98232 4.53771 10.1733 4.77335 10.1733H7.76V11.0267H4.77335C4.53771 11.0267 4.34668 11.2177 4.34668 11.4533C4.34668 11.689 4.53771 11.88 4.77335 11.88H7.76V12.7333H4.77335C4.53771 12.7333 4.34668 12.9244 4.34668 13.16C4.34668 13.3957 4.53771 13.5867 4.77335 13.5867H7.76V14.44H4.77335C4.53771 14.44 4.34668 14.631 4.34668 14.8667C4.34668 15.1023 4.53771 15.2933 4.77335 15.2933H7.76V16.1467H4.77335C4.06642 16.1467 3.49335 15.5736 3.49335 14.8667C3.49335 14.5388 3.61659 14.2398 3.81928 14.0133C3.61659 13.7869 3.49335 13.4878 3.49335 13.16C3.49335 12.8322 3.61659 12.5331 3.81928 12.3067C3.61659 12.0802 3.49335 11.7812 3.49335 11.4533C3.49335 11.1255 3.61659 10.8265 3.81928 10.6C3.61659 10.3736 3.49335 10.0745 3.49335 9.74668C3.49335 9.41884 3.61659 9.1198 3.81928 8.89334C3.61659 8.66689 3.49335 8.36784 3.49335 8.04001ZM15.44 8.04001C15.44 8.27565 15.249 8.46668 15.0133 8.46668H4.77335C4.53771 8.46668 4.34668 8.27565 4.34668 8.04001C4.34668 7.80437 4.53771 7.61334 4.77335 7.61334H15.0133C15.249 7.61334 15.44 7.80437 15.44 8.04001Z" fill="#9B9EAA"/>
<path id="Rectangle 8" d="M7.33331 8.89334H12.4533V15.72H9.89331H7.33331V8.89334Z" stroke="#9B9EAA" stroke-width="0.853333"/>
</g>
</svg>
