<svg width="15" height="14" viewBox="0 0 15 14" fill="none" xmlns="http://www.w3.org/2000/svg">
<path id="Icon / magnifyingglass" d="M6.39374 11.1349C7.57666 11.1349 8.66749 10.7524 9.55999 10.1149L12.9175 13.4724C13.0733 13.6282 13.2787 13.7061 13.4983 13.7061C13.9587 13.7061 14.2846 13.3519 14.2846 12.8986C14.2846 12.6861 14.2137 12.4807 14.0579 12.3319L10.7217 8.98861C11.4229 8.06778 11.8408 6.92736 11.8408 5.68778C11.8408 2.69153 9.38999 0.240692 6.39374 0.240692C3.40457 0.240692 0.946655 2.68444 0.946655 5.68778C0.946655 8.68403 3.39749 11.1349 6.39374 11.1349ZM6.39374 9.95903C4.05624 9.95903 2.12249 8.02528 2.12249 5.68778C2.12249 3.35028 4.05624 1.41653 6.39374 1.41653C8.73124 1.41653 10.665 3.35028 10.665 5.68778C10.665 8.02528 8.73124 9.95903 6.39374 9.95903Z" fill="white" fill-opacity="0.6"/>
</svg>
