<svg width="134" height="33" viewBox="0 0 134 33" fill="none" xmlns="http://www.w3.org/2000/svg">
<g id="Notch" filter="url(#filter0_d_153_478)">
<path d="M121.07 22.9576L123.387 8.61568C124.189 3.64881 128.452 0 133.453 0H0.333313C5.03549 0 9.12818 3.23479 10.2418 7.83147L14.0962 23.7419C15.2098 28.3385 19.3025 31.5733 24.0047 31.5733H111.004C116.005 31.5733 120.268 27.9245 121.07 22.9576Z" fill="url(#paint0_linear_153_478)"/>
<path d="M122.966 8.54766L120.649 22.8896C119.88 27.6517 115.794 31.1467 111.004 31.1467H24.0047C19.5011 31.1467 15.5785 28.0483 14.5109 23.6414L10.6564 7.73101C9.84389 4.37695 7.50755 1.71783 4.49568 0.426667H129.29C126.023 1.8279 123.565 4.83501 122.966 8.54766Z" stroke="#8671EC" stroke-opacity="0.2" stroke-width="0.853333"/>
</g>
<defs>
<filter id="filter0_d_153_478" x="0.333313" y="0" width="133.12" height="32.4267" filterUnits="userSpaceOnUse" color-interpolation-filters="sRGB">
<feFlood flood-opacity="0" result="BackgroundImageFix"/>
<feColorMatrix in="SourceAlpha" type="matrix" values="0 0 0 0 0 0 0 0 0 0 0 0 0 0 0 0 0 0 127 0" result="hardAlpha"/>
<feOffset dy="0.853333"/>
<feComposite in2="hardAlpha" operator="out"/>
<feColorMatrix type="matrix" values="0 0 0 0 1 0 0 0 0 1 0 0 0 0 1 0 0 0 0.25 0"/>
<feBlend mode="normal" in2="BackgroundImageFix" result="effect1_dropShadow_153_478"/>
<feBlend mode="normal" in="SourceGraphic" in2="effect1_dropShadow_153_478" result="shape"/>
</filter>
<linearGradient id="paint0_linear_153_478" x1="0.333313" y1="0" x2="0.333313" y2="31.5733" gradientUnits="userSpaceOnUse">
<stop stop-color="#313A5B"/>
<stop offset="1" stop-color="#21273D"/>
</linearGradient>
</defs>
</svg>
