<svg width="20" height="18" viewBox="0 0 20 18" fill="none" xmlns="http://www.w3.org/2000/svg">
<g id="plane">
<path id="Vector" d="M9.73341 0.58667C8.17315 0.58667 8.02674 1.90421 8.02674 3.00315L8.21577 6.02933C8.23606 6.35416 8.06981 6.66225 7.78715 6.82361L0.777017 10.8254C0.510963 10.9773 0.346741 11.2602 0.346741 11.5665V13.0408C0.346741 13.3343 0.636099 13.5401 0.913318 13.4439L8.45341 10.8267L8.88007 14.24L5.66727 16.248C5.54253 16.326 5.46674 16.4627 5.46674 16.6098L5.46674 17.1329C5.46674 17.4021 5.71307 17.6041 5.97708 17.5513L9.3987 16.8669C9.61965 16.8228 9.84716 16.8228 10.0681 16.8669L13.4897 17.5513C13.7537 17.6041 14.0001 17.4021 14.0001 17.1329L14.0001 16.6098C14.0001 16.4627 13.9243 16.326 13.7995 16.248L10.5867 14.24L11.0134 10.8267L18.5535 13.4439C18.8307 13.5401 19.1201 13.3343 19.1201 13.0408V11.5665C19.1201 11.2602 18.9559 10.9773 18.6898 10.8254L11.6797 6.82361C11.397 6.66225 11.2308 6.35416 11.251 6.02933L11.4401 3.00315C11.4401 1.90421 11.2937 0.58667 9.73341 0.58667Z" fill="#6386CB"/>
</g>
</svg>
